# Blender 3.3.1
# www.blender.org
o vsn_mesh_0_com_bm_murekanban
v 15.735499 2.032626 26.943300
v -14.572700 2.032625 31.321499
v 15.144099 2.032625 31.321499
v -15.378300 2.032626 26.943300
v -14.820000 2.032626 22.565100
v 15.378300 2.032626 22.565100
v -14.366099 2.032628 13.808599
v 15.138300 2.032628 13.808599
v 15.735499 -2.032634 26.943300
v -14.572700 -2.032635 31.321499
v -15.378300 -2.032634 26.943300
v 15.144099 -2.032635 31.321499
v -14.820000 -2.032634 22.565100
v 15.378300 -2.032634 22.565100
v -14.366099 -2.032632 13.808599
v 15.138300 -2.032632 13.808599
v 15.378300 -2.032634 22.565100
v 15.138300 -2.032632 13.808599
v 15.138300 2.032628 13.808599
v 15.378300 2.032626 22.565100
v 15.735499 -2.032634 26.943300
v 15.735499 2.032626 26.943300
v 15.144099 -2.032635 31.321499
v 15.144099 2.032625 31.321499
v -14.820000 2.032626 22.565100
v -14.366099 2.032628 13.808599
v -14.366099 -2.032632 13.808599
v -14.820000 -2.032634 22.565100
v -15.378300 2.032626 26.943300
v -15.378300 -2.032634 26.943300
v -14.572700 2.032625 31.321499
v -14.572700 -2.032635 31.321499
v -1.337890 -1.266750 -0.000000
v 1.337890 -1.266756 34.029099
v -1.337890 -1.266756 34.029099
v 1.337890 -1.266750 -0.000000
v 1.337890 -1.266756 34.029099
v -1.337890 1.266744 34.029099
v -1.337890 -1.266756 34.029099
v 1.337890 1.266744 34.029099
v -1.337890 1.266750 0.000000
v 1.337890 1.266744 34.029099
v 1.337890 1.266750 0.000000
v -1.337890 1.266744 34.029099
v 1.337890 1.266750 0.000000
v 1.337890 -1.266756 34.029099
v 1.337890 -1.266750 -0.000000
v 1.337890 1.266744 34.029099
v -1.337890 -1.266750 -0.000000
v -1.337890 1.266744 34.029099
v -1.337890 1.266750 0.000000
v -1.337890 -1.266756 34.029099
v 15.144099 -2.032635 31.321499
v -14.572700 2.032625 31.321499
v -14.572700 -2.032635 31.321499
v 15.144099 2.032625 31.321499
v 15.138300 2.032628 13.808599
v -14.366099 -2.032632 13.808599
v -14.366099 2.032628 13.808599
v 15.138300 -2.032632 13.808599
vn -0.0000 1.0000 -0.0000
vn -0.0000 -1.0000 -0.0000
vn 0.9985 -0.0000 -0.0544
vn 0.9996 -0.0000 -0.0274
vn 0.9997 -0.0000 0.0264
vn 0.9910 -0.0000 0.1339
vn -0.9960 -0.0000 -0.0892
vn -0.9987 -0.0000 -0.0518
vn -0.9996 -0.0000 0.0276
vn -0.9835 -0.0000 0.1810
vn -0.0000 -0.0000 1.0000
vn 1.0000 -0.0000 -0.0000
vn -1.0000 -0.0000 -0.0000
vn -0.0000 -0.0000 -1.0000
vt 0.082936 0.835644
vt 0.852243 0.994448
vt 0.082936 0.994448
vt 0.852243 0.835644
vt 0.852243 0.755772
vt 0.082936 0.755772
vt 0.852243 0.506256
vt 0.082936 0.506256
vt 0.873651 0.875110
vt 0.046875 0.994449
vt 0.046875 0.875111
vt 0.873651 0.994448
vt 0.046875 0.755772
vt 0.873651 0.755772
vt 0.046875 0.506256
vt 0.873651 0.506256
vt 0.000000 0.755772
vt 0.000000 0.506256
vt 0.046875 0.506256
vt 0.046875 0.755772
vt 0.000000 0.875111
vt 0.046875 0.875111
vt 0.000000 0.994449
vt 0.046875 0.994449
vt 0.000000 0.755772
vt 0.000000 0.506256
vt 0.046875 0.506256
vt 0.046875 0.755772
vt 0.000000 0.875111
vt 0.046875 0.875111
vt 0.000000 0.994449
vt 0.046875 0.994449
vt 0.085114 0.582918
vt 0.826020 0.524659
vt 0.826020 0.582918
vt 0.085114 0.524659
vt 0.000000 0.796875
vt 0.046875 0.890625
vt 0.000000 0.890625
vt 0.046875 0.796875
vt 0.826020 0.871213
vt 0.085114 0.812954
vt 0.826020 0.812954
vt 0.085114 0.871213
vt 0.085114 0.700352
vt 0.826020 0.755513
vt 0.085114 0.755513
vt 0.826020 0.700352
vt 0.085114 0.613629
vt 0.826020 0.668790
vt 0.085114 0.668790
vt 0.826020 0.613629
vt 0.875000 0.907992
vt 0.046875 0.994449
vt 0.046875 0.907992
vt 0.873651 0.994448
vt 0.875000 0.907992
vt 0.046875 0.994449
vt 0.046875 0.907992
vt 0.875000 0.994448
s 0
f 1/1/1 2/2/1 3/3/1
f 1/1/1 4/4/1 2/2/1
f 1/1/1 5/5/1 4/4/1
f 1/1/1 6/6/1 5/5/1
f 6/6/1 7/7/1 5/5/1
f 6/6/1 8/8/1 7/7/1
f 9/9/2 10/10/2 11/11/2
f 9/9/2 12/12/2 10/10/2
f 9/9/2 11/11/2 13/13/2
f 9/9/2 13/13/2 14/14/2
f 13/13/2 15/15/2 14/14/2
f 15/15/2 16/16/2 14/14/2
s 1
f 17/17/3 18/18/4 19/19/4
f 17/17/3 19/19/4 20/20/3
f 17/17/3 20/20/3 21/21/5
f 20/20/3 22/22/5 21/21/5
f 22/22/5 23/23/6 21/21/5
f 22/22/5 24/24/6 23/23/6
f 25/25/7 26/26/8 27/27/8
f 25/25/7 27/27/8 28/28/7
f 25/25/7 28/28/7 29/29/9
f 28/28/7 30/30/9 29/29/9
f 30/30/9 31/31/10 29/29/9
f 30/30/9 32/32/10 31/31/10
s 0
f 33/33/2 34/34/2 35/35/2
f 33/33/2 36/36/2 34/34/2
f 37/37/11 38/38/11 39/39/11
f 37/37/11 40/40/11 38/38/11
f 41/41/1 42/42/1 43/43/1
f 41/41/1 44/44/1 42/42/1
f 45/45/12 46/46/12 47/47/12
f 45/45/12 48/48/12 46/46/12
f 49/49/13 50/50/13 51/51/13
f 49/49/13 52/52/13 50/50/13
f 53/53/11 54/54/11 55/55/11
f 53/53/11 56/56/11 54/54/11
f 57/57/14 58/58/14 59/59/14
f 57/57/14 60/60/14 58/58/14
